<svg width="843" height="878" viewBox="0 0 843 878" fill="none" xmlns="http://www.w3.org/2000/svg">
<g opacity="0.3">
<path d="M807.419 729.766C809.934 789.475 756.599 838.681 695.233 838.073C634.433 837.486 587.45 790.565 587.639 730.416C587.869 668.002 635.586 622.465 698.378 621.626C752.091 620.893 804.567 663.117 807.419 729.766Z" fill="#292323"/>
<path d="M403.542 804.528C403.539 756.498 412.997 708.937 431.376 664.562C449.756 620.187 476.696 579.867 510.659 545.904C544.621 511.941 584.941 485.001 629.316 466.622C673.691 448.243 721.252 438.785 769.283 438.787" stroke="#7B7373" stroke-width="145.978" stroke-miterlimit="10" stroke-linecap="round"/>
<path d="M-0.209495 729.766C-2.7463 789.475 50.5896 838.681 111.955 838.073C172.86 837.486 219.759 790.565 219.549 730.416C219.34 668.002 171.623 622.465 108.831 621.626C55.1181 620.893 2.62083 663.117 -0.209495 729.766Z" fill="#232322"/>
<path d="M403.667 804.528C403.667 756.498 394.207 708.939 375.827 664.565C357.447 620.192 330.507 579.873 296.544 545.91C262.582 511.948 222.263 485.008 177.89 466.628C133.516 448.247 85.9564 438.787 37.9266 438.787" stroke="#292323" stroke-width="145.978" stroke-miterlimit="10" stroke-linecap="round"/>
<path d="M-12.9145 148.354C-15.4303 88.6445 37.9056 39.4388 99.2712 40.0048C160.071 40.5919 207.054 87.5124 206.866 147.662C206.635 210.076 158.918 255.613 96.1264 256.451C42.4132 257.185 -10.0632 214.961 -12.9145 148.354Z" fill="#7B7373"/>
<path d="M390.962 73.5493C390.965 121.58 381.507 169.141 363.128 213.516C344.748 257.891 317.808 298.211 283.846 332.173C249.883 366.136 209.563 393.076 165.188 411.455C120.813 429.835 73.2521 439.293 25.2216 439.29" stroke="#232322" stroke-width="145.978" stroke-miterlimit="10" stroke-linecap="round"/>
</g>
</svg>
